<?xml version="1.0" standalone="no"?>
<!DOCTYPE svg PUBLIC "-//W3C//DTD SVG 20010904//EN"
 "http://www.w3.org/TR/2001/REC-SVG-20010904/DTD/svg10.dtd">
<svg version="1.0" xmlns="http://www.w3.org/2000/svg"
 width="1000.000000pt" height="1000.000000pt" viewBox="0 0 1000.000000 1000.000000"
 preserveAspectRatio="xMidYMid meet">
<metadata>
Created by potrace 1.11, written by Peter Selinger 2001-2013
</metadata>
<g transform="translate(0.000000,1000.000000) scale(0.100000,-0.100000)"
fill="#000000" stroke="none">
<path d="M2505 9993 c-335 -7 -645 -43 -861 -98 -627 -161 -1127 -567 -1398
-1135 -130 -274 -195 -545 -228 -965 -19 -234 -19 -5358 0 -5590 35 -438 101
-709 241 -990 185 -374 454 -664 809 -876 315 -187 643 -280 1132 -321 226
-19 5374 -19 5600 0 444 37 745 114 1037 268 208 108 371 232 544 411 340 354
527 781 589 1346 28 264 31 603 27 3117 -4 2677 -3 2644 -48 2945 -76 515
-284 929 -636 1267 -333 319 -766 518 -1268 582 -302 39 -310 39 -2895 41
-1389 0 -2579 0 -2645 -2z m1445 -2933 l0 -1200 1050 0 1050 0 0 1200 0 1200
878 -2 877 -3 3 -3272 2 -3273 -880 0 -880 0 0 1195 0 1195 -1050 0 -1050 0 0
-1192 0 -1193 -875 -3 -875 -2 0 3275 0 3275 875 0 875 0 0 -1200z"/>
</g>
</svg>
