<svg version="1" xmlns="http://www.w3.org/2000/svg" width="1333.333" height="1333.333" viewBox="0 0 1000.000000 1000.000000"><path d="M237.9.4c-.2.2-5.3.6-11.4 1-6 .3-13.2.8-16 1.1C199 3.6 195.4 4 193 4.5c-1.4.2-4.1.7-6 .9-4.2.6-8.6 1.4-12 2.2-1.4.3-3.6.8-5 1-1.4.3-3.4.8-4.5 1.1-2.2.8-1.9.7-6 1.7-5.4 1.4-16 4.6-18 5.6-1.1.5-4.2 1.8-7 2.9-5 1.9-20.2 9.2-24 11.4-1.1.7-5.3 3.3-9.4 5.9-4 2.7-7.8 4.8-8.2 4.8-.5 0-.9.4-.9.8s-1.2 1.5-2.8 2.4c-1.5 1-3.9 2.7-5.4 4-1.4 1.3-4.4 3.7-6.5 5.5C68.1 62.2 55 76 46.2 87.6c-6.9 9.1-19.2 28.9-19.2 31 0 .8-.4 1.4-1 1.4-.5 0-1 .5-1 1 0 1-3.1 8.5-5.5 13-.7 1.4-2.9 7.7-4.9 14-5 15.6-5.4 17.1-6 20-.3 1.4-1 5-1.6 8-.6 3-1.3 7.1-1.6 9-.2 1.9-.6 4.6-.9 6-.2 1.4-.7 5.2-1 8.5-.4 3.3-.8 7-1 8.3-1.7 10.2-2 60.5-2 292.7 0 234.1.3 276.8 2 291.5.2 1.9.6 6.2 1 9.5.3 3.3.8 6.9 1 8 .2 1.1.7 3.6.9 5.5.9 6.3 2.5 13.4 5 23 1.4 5.2 2.8 10.3 3 11.3.9 3.5 7.8 21.2 9.6 24.7.9 1.9 2.9 5.8 4.4 8.6 4.2 8.3 4.9 9.6 9 15.9 16.9 26.1 37.4 46.6 63.2 63.5 6 3.9 11.9 7.3 13.2 7.6 1.2.4 2.2.9 2.2 1.3 0 1.2 18.9 9.6 30 13.4 13.6 4.6 31.9 9.3 40.5 10.2 1.7.2 3 .4 3 .5 0 .1 1.1.3 2.5.5 5.4.6 13.6 1.6 16.5 2 1.7.2 8.4.7 15 1.2 15.3 1 540.5 1.1 554.5 0 17.7-1.3 26.2-2.3 37.8-4.3 4.8-.8 10.1-1.7 11.7-2 4.1-.7 15.6-3.9 26.2-7.3 46.3-15.1 88-48.4 113.6-90.8 4.2-6.9 14.7-27.7 14.7-29.1 0-.5.6-2.2 1.4-3.8 1.7-3.3 8.1-24.4 8.9-28.9.3-1.7 1.2-6.2 2-10 1.6-7.5 2.5-13 3.3-21 .3-2.8.7-6.1.9-7.5.3-1.4.8-7.9 1.2-14.5 1-15.7 1-543.6 0-558-1.3-19.5-1.8-23.2-5.3-44-.1-1.1-.6-3.1-.9-4.5-.3-1.4-.8-3.6-1.1-5-.3-1.4-.9-3.9-1.5-5.6-.5-1.7-1.1-4-1.3-5-.5-2.3-5.3-17.1-6.5-19.9-.5-1.1-1.7-3.8-2.6-6-4.1-9.3-14-28.3-15.4-29.5-.3-.3-2.4-3.2-4.6-6.5-2.2-3.3-4.2-6.2-4.6-6.5-.3-.3-1-1.2-1.5-2.1-2.4-4.3-19.3-22.3-28.9-30.9C896.4 31 856.9 12.7 817 6.1c-14-2.3-14.7-2.4-28-3.6-3.6-.3-8.7-.9-11.5-1.2C772.3.6 238.6-.2 237.9.4z"/></svg>